<?xml version="1.0" encoding="iso-8859-1"?>
<!-- Uploaded to: SVG Repo, www.svgrepo.com, Generator: SVG Repo Mixer Tools -->
<!DOCTYPE svg PUBLIC "-//W3C//DTD SVG 1.1//EN" "http://www.w3.org/Graphics/SVG/1.1/DTD/svg11.dtd">
<svg fill="#000000" version="1.1" id="Capa_1" xmlns="http://www.w3.org/2000/svg" xmlns:xlink="http://www.w3.org/1999/xlink" 
	 width="800px" height="800px" viewBox="0 0 49 49" xml:space="preserve">
<g>
	<path d="M8.447,22.24c0-0.357,0.132-0.7,0.345-1.021H40.21c0.212,0.321,0.345,0.664,0.345,1.021c0,1.609-2.353,2.97-5.135,2.97
		H13.581C10.799,25.212,8.447,23.85,8.447,22.24z M49,23.265c0,1.402-1.001,2.539-2.232,2.539h-0.547
		c0,0.004,0.002,0.006,0.002,0.01c0.297,0.877,0.463,1.834,0.463,2.838v2.975c0,2.909-0.709,5.42-2.312,6.643v3.268
		c0,1.641-1.172,2.971-2.613,2.971h-2.396c-1.441,0-2.612-1.332-2.612-2.971v-2.479h-24.5v2.479c0,1.641-1.171,2.971-2.613,2.971
		H7.242c-1.442,0-2.613-1.332-2.613-2.971v-3.268c-1.601-1.223-2.31-3.732-2.31-6.643v-2.975c0-1.002,0.164-1.959,0.458-2.834
		c0-0.004,0.003-0.008,0.003-0.014H2.232C0.999,25.804,0,24.667,0,23.267c0-1.404,0.999-2.541,2.232-2.541h2.177
		c0.079,0,0.152,0.018,0.227,0.026l2.835-7.234c0.896-2.285,3.056-4.008,5.024-4.008h3.126c0.316-2.822,2.368-5.017,4.871-5.017
		h8.015c2.505,0,4.554,2.194,4.872,5.017h3.126c1.935,0,4.146,1.76,5.024,4.006l2.836,7.236c0.074-0.009,0.146-0.026,0.225-0.026
		h2.178C47.999,20.724,49,21.86,49,23.265z M7.141,22.24c0,2.397,2.828,4.274,6.44,4.274H35.42c3.614,0,6.441-1.88,6.441-4.275
		c0-0.309-0.059-0.857-0.063-0.883c-0.557-2.247-2.698-6.891-2.698-6.891c-0.518-1.322-1.818-2.347-2.59-2.347H12.499
		c-0.772,0-2.072,1.025-2.591,2.349c0,0-1.883,4.315-2.701,6.891C7.199,21.382,7.141,21.933,7.141,22.24z M14.374,32.367
		c0-1.691-1.855-3.068-4.144-3.068c-2.286,0-4.142,1.374-4.142,3.068c0,1.692,1.855,3.065,4.142,3.065
		C12.519,35.433,14.374,34.06,14.374,32.367z M42.913,32.367c0-1.691-1.853-3.068-4.142-3.068c-2.287,0-4.144,1.374-4.144,3.068
		c0,1.692,1.854,3.065,4.144,3.065S42.913,34.06,42.913,32.367z"/>
</g>
</svg>